<svg width="18" height="19" viewBox="0 0 18 19" fill="none" xmlns="http://www.w3.org/2000/svg">
<path d="M15.9761 6.44474C17.0755 6.44474 17.9668 5.56124 17.9668 4.47139C17.9668 3.38154 17.0755 2.49805 15.9761 2.49805C14.8766 2.49805 13.9854 3.38154 13.9854 4.47139C13.9854 5.56124 14.8766 6.44474 15.9761 6.44474Z" fill="#989898"/>
<path d="M5.98099 9.03227C5.94785 8.96685 5.89704 8.91184 5.83421 8.87336C5.77139 8.83489 5.69902 8.81446 5.62517 8.81436H4.43094V6.05148C4.43081 5.99944 4.42029 5.94794 4.39998 5.89996C4.37968 5.85198 4.34999 5.80845 4.31264 5.77189C4.27529 5.73534 4.231 5.70648 4.18234 5.68697C4.13368 5.66746 4.0816 5.65769 4.02911 5.65822H2.44021C2.33472 5.65822 2.23356 5.69976 2.15897 5.7737C2.08438 5.84764 2.04247 5.94793 2.04247 6.0525V8.81538H0.847215C0.773334 8.81552 0.700945 8.836 0.638122 8.87454C0.5753 8.91308 0.524515 8.96818 0.491432 9.03366C0.458349 9.09914 0.444269 9.17244 0.450762 9.2454C0.457256 9.31835 0.484068 9.38809 0.528207 9.44682L2.91667 12.604C2.95382 12.6531 3.00198 12.6929 3.05735 12.7203C3.11272 12.7478 3.17378 12.7621 3.23568 12.7621C3.29759 12.7621 3.35864 12.7478 3.41401 12.7203C3.46938 12.6929 3.51755 12.6531 3.55469 12.604L5.94316 9.44682C5.98784 9.3881 6.01507 9.31816 6.02175 9.2449C6.02844 9.17165 6.01432 9.09798 5.98099 9.03227Z" fill="#989898"/>
<path d="M2.43876 4.86789H5.22599V6.05068C5.22594 6.12398 5.24651 6.19585 5.28539 6.25821C5.32427 6.32057 5.37991 6.37095 5.44608 6.40369C5.51224 6.43643 5.58631 6.45024 5.65995 6.44356C5.7336 6.43688 5.80391 6.40998 5.86298 6.36589L9.04794 3.99828C9.09746 3.96156 9.13766 3.91391 9.16535 3.85911C9.19303 3.8043 9.20745 3.74385 9.20745 3.68256C9.20745 3.62127 9.19303 3.56082 9.16535 3.50601C9.13766 3.45121 9.09746 3.40356 9.04794 3.36684L5.86298 0.999232C5.80391 0.955135 5.7336 0.928238 5.65995 0.921561C5.58631 0.914884 5.51224 0.928691 5.44608 0.961432C5.37991 0.994174 5.32427 1.04455 5.28539 1.10691C5.24651 1.16927 5.22594 1.24113 5.22599 1.31444V2.49825H2.43876C2.33327 2.49825 2.23211 2.53979 2.15752 2.61372C2.08293 2.68766 2.04102 2.78795 2.04102 2.89251V4.47159C2.04075 4.52354 2.05084 4.57503 2.07071 4.6231C2.09058 4.67116 2.11983 4.71487 2.15679 4.75169C2.19375 4.78852 2.23769 4.81774 2.28608 4.83768C2.33447 4.85762 2.38635 4.86789 2.43876 4.86789Z" fill="#989898"/>
<path d="M16.1657 7.2946C15.7883 7.20008 15.3909 7.22092 15.0257 7.35439L11.7293 8.81388H8.81422C8.49749 8.81388 8.19373 8.93861 7.96977 9.16061C7.74581 9.38262 7.61998 9.68372 7.61998 9.99769C7.61998 10.3117 7.74581 10.6128 7.96977 10.8348C8.19373 11.0568 8.49749 11.1815 8.81422 11.1815H11.9992C12.1788 11.1819 12.3561 11.1417 12.5176 11.0639L13.9746 10.4213L13.4961 12.3045L7.90014 11.971C7.67509 11.9595 7.45054 12.0017 7.24538 12.0941C7.04023 12.1866 6.86047 12.3265 6.72124 12.5021L3.933 16.0495C3.81704 16.1923 3.73091 16.3566 3.67963 16.5327C3.62836 16.7088 3.61296 16.8933 3.63434 17.0754C3.65572 17.2575 3.71345 17.4336 3.80416 17.5933C3.89487 17.7531 4.01675 17.8933 4.1627 18.0059C4.30864 18.1185 4.47574 18.2012 4.65424 18.2491C4.83274 18.297 5.01908 18.3093 5.2024 18.2851C5.38573 18.2609 5.56235 18.2008 5.72201 18.1083C5.88166 18.0157 6.02113 17.8926 6.1323 17.7461L8.47067 14.7674C14.5124 15.1221 14.5359 15.1221 14.5523 15.1221C14.8585 15.1123 15.1528 15.0018 15.3888 14.8081C15.6248 14.6143 15.7892 14.3483 15.8559 14.0518L17.1299 9.07842C17.2223 8.71545 17.1747 8.33137 16.9963 8.0014C16.818 7.67143 16.5218 7.41937 16.1657 7.2946Z" fill="#989898"/>
</svg>
