<svg width="10" height="21" viewBox="0 0 10 21" fill="none" xmlns="http://www.w3.org/2000/svg">
<g clip-path="url(#clip0_6763_9291)">
<path d="M1.65567 17.8414V18.7441L1.66243 19.0177C1.67377 19.0732 1.68517 19.1287 1.69664 19.1842C1.84292 19.6579 2.15793 19.9663 2.64169 20.1094C2.69188 20.1535 2.7517 20.1495 2.81234 20.1429L3.09198 20.1493C3.12599 20.1634 3.1602 20.1784 3.19441 20.1493H3.50171C3.53592 20.1634 3.57014 20.1784 3.60415 20.1493H3.91144C3.94566 20.1634 3.97966 20.1784 4.01388 20.1493H4.32117C4.35518 20.1634 4.38939 20.1784 4.42361 20.1493H4.7309C4.76512 20.1634 4.79933 20.1784 4.83334 20.1493H5.14064C5.17485 20.1634 5.20906 20.1784 5.24307 20.1493H5.55037C5.58458 20.1634 5.61859 20.1784 5.6528 20.1493H5.9601C5.9941 20.1634 6.02832 20.1784 6.06253 20.1493H6.36983C6.40404 20.1634 6.43825 20.1784 6.47226 20.1493H6.77956C6.81377 20.1634 6.84798 20.1784 6.88199 20.1493L7.1688 20.1258C7.18283 20.1317 7.19842 20.1329 7.21321 20.1293C7.228 20.1256 7.24118 20.1174 7.25075 20.1058L7.4761 20.0237C7.48873 20.0249 7.50141 20.0222 7.51242 20.016C7.52342 20.0099 7.5322 20.0005 7.53756 19.9892L7.70145 19.8853C7.73259 19.8693 7.77623 19.8679 7.78033 19.8203L7.91738 19.6815C7.96266 19.6705 7.97085 19.6318 7.98396 19.5967L8.0739 19.4444C8.11815 19.4203 8.11794 19.3756 8.12696 19.3351L8.18719 19.1419C8.23861 19.1074 8.18719 19.0553 8.20952 19.0159L8.21546 18.7634C8.24537 18.7301 8.2298 18.6966 8.21546 18.6631V18.3622C8.24537 18.3287 8.2298 18.2952 8.21546 18.2619V17.961C8.24537 17.9277 8.2298 17.8942 8.21546 17.8607V17.5598C8.24537 17.5263 8.2298 17.4928 8.21546 17.4595V17.1586C8.24537 17.1253 8.2298 17.0918 8.21546 17.0583V16.7574C8.24537 16.7239 8.2298 16.6904 8.21546 16.6571V16.3562C8.24537 16.3227 8.2298 16.2894 8.21546 16.2559V15.955C8.24537 15.9215 8.2298 15.888 8.21546 15.8547V15.5538C8.24517 15.5239 8.23738 15.4848 8.2425 15.4489C8.24373 15.352 8.2425 15.2549 8.2425 15.158C8.2466 15.1217 8.23881 15.0852 8.2425 15.0489C8.24373 14.9512 8.2425 14.8535 8.2425 14.7558C8.2466 14.7185 8.23799 14.6812 8.24414 14.6439C8.24414 14.5805 8.24414 14.5171 8.24414 14.4539C8.2425 14.3811 8.20665 14.3434 8.13126 14.3414C8.06652 14.3398 8.00199 14.3394 7.93725 14.3402C7.89935 14.3464 7.86104 14.3386 7.82294 14.3418C7.72317 14.3418 7.6234 14.3398 7.52342 14.3418C7.48634 14.3468 7.44906 14.3396 7.41177 14.3418C7.31262 14.3418 7.21326 14.3398 7.1141 14.3418C7.07702 14.3468 7.03974 14.3396 7.00245 14.3418C6.9033 14.3418 6.80394 14.3398 6.70478 14.3418C6.6677 14.3468 6.63042 14.3396 6.59334 14.3418C6.49398 14.3418 6.39482 14.3398 6.29546 14.3418C6.25838 14.3468 6.2211 14.3396 6.18401 14.3418C6.08486 14.3418 5.9855 14.3398 5.88634 14.3418C5.84906 14.3468 5.81198 14.3396 5.77469 14.3418C5.67533 14.3418 5.57597 14.3398 5.47661 14.3418C5.43912 14.3468 5.40122 14.339 5.36373 14.3432C5.24081 14.3584 5.23508 14.3668 5.23713 14.5452C5.23262 14.5819 5.24081 14.6188 5.2361 14.6557C5.23487 14.753 5.2361 14.8501 5.2361 14.9474C5.23221 14.9839 5.24 15.0202 5.23508 15.0565C5.23405 15.1538 5.23508 15.2509 5.2361 15.3482C5.23221 15.3845 5.24 15.421 5.23508 15.4573C5.23405 15.5544 5.23508 15.6517 5.2361 15.7488C5.23221 15.7853 5.24 15.8216 5.23508 15.8579C5.23405 15.9552 5.23508 16.0523 5.2361 16.1496C5.23221 16.1859 5.24 16.2224 5.23508 16.2587C5.23405 16.3558 5.23508 16.4531 5.2361 16.5502C5.23221 16.5867 5.24 16.623 5.23508 16.6593C5.23405 16.7566 5.23508 16.8537 5.2361 16.951C5.23221 16.9873 5.24 17.0238 5.23508 17.0601C5.23405 17.1572 5.23508 17.2545 5.2361 17.3516C5.23221 17.3877 5.23979 17.424 5.2361 17.4603C5.2361 17.5556 5.2361 17.6511 5.23754 17.7463C5.23201 17.7788 5.2443 17.8133 5.22565 17.8444C5.15272 17.8868 5.07283 17.8633 4.99621 17.8669C4.91426 17.8707 4.83231 17.8651 4.75037 17.8685C4.66842 17.8719 4.64097 17.8382 4.64179 17.762C4.64343 17.5887 4.64363 17.4154 4.64179 17.2418C4.64568 17.2059 4.6381 17.17 4.64179 17.1339C4.64302 17.0366 4.64179 16.9393 4.64076 16.842C4.64486 16.8055 4.63708 16.7692 4.64179 16.7327C4.64281 16.6356 4.64179 16.5383 4.64076 16.4412C4.64486 16.4047 4.63708 16.3684 4.64179 16.3321C4.64281 16.2348 4.64179 16.1377 4.64076 16.0404C4.64486 16.0041 4.63708 15.9676 4.64179 15.9313C4.64281 15.834 4.64179 15.7369 4.64076 15.6398C4.64486 15.6033 4.63708 15.567 4.64179 15.5305C4.64281 15.4334 4.64179 15.3363 4.64076 15.2391C4.64486 15.2027 4.63708 15.1662 4.64179 15.1299C4.64281 15.0326 4.64179 14.9355 4.64076 14.8383C4.64486 14.8017 4.63708 14.765 4.64199 14.7285C4.64199 14.6298 4.64363 14.5309 4.63912 14.4322C4.63929 14.4094 4.63027 14.3874 4.61401 14.3711C4.59776 14.3547 4.57557 14.3453 4.55226 14.3448C4.45126 14.3402 4.35026 14.3414 4.24906 14.3416C4.21178 14.3466 4.17429 14.3394 4.137 14.3416C4.03764 14.3416 3.93849 14.3396 3.83913 14.3416C3.80204 14.3466 3.76476 14.3394 3.72768 14.3416C3.62832 14.3416 3.52916 14.3396 3.4298 14.3416C3.39272 14.3466 3.35544 14.3394 3.31836 14.3416C3.219 14.3416 3.11984 14.3396 3.02048 14.3416C2.9834 14.3466 2.94612 14.3394 2.90904 14.3416C2.80988 14.3416 2.71052 14.3396 2.61137 14.3416C2.57408 14.3466 2.5368 14.3394 2.49972 14.3416C2.40015 14.3416 2.30079 14.3396 2.20123 14.3416C2.16353 14.3464 2.12584 14.3388 2.08814 14.3416C1.98776 14.3498 1.88328 14.3153 1.78678 14.3674H1.68435C1.63662 14.4519 1.68005 14.5442 1.66059 14.6312V17.8368L1.65567 17.8414Z" fill="#989898"/>
<path d="M6.85687 0.908203H3.07096L2.81099 0.914423C2.77104 0.934483 2.72679 0.932077 2.68376 0.935888L2.48402 0.994863L2.37524 1.04682L2.2179 1.13488L2.13288 1.20008L1.99091 1.33387L1.92474 1.41111L1.81841 1.57259L1.78359 1.63277C1.75545 1.70592 1.72745 1.77947 1.69959 1.85343C1.70282 1.88172 1.69555 1.9102 1.6791 1.93367C1.67118 2.02728 1.66326 2.12089 1.65534 2.21451V9.12675C1.64018 9.22424 1.683 9.26476 1.78174 9.25032C1.81475 9.26774 1.85181 9.27645 1.8893 9.2756C1.98804 9.2772 2.08679 9.27773 2.18553 9.2772C2.22261 9.27239 2.25969 9.27941 2.29677 9.2772C2.39593 9.2772 2.49529 9.27921 2.59444 9.2782C2.63152 9.27319 2.66881 9.28041 2.70589 9.2772C2.80505 9.2772 2.90441 9.27921 3.00377 9.2782C3.04085 9.27319 3.07793 9.28041 3.11521 9.2772C3.21437 9.2772 3.31373 9.27921 3.41288 9.2782C3.44996 9.27319 3.48725 9.28041 3.52433 9.2772C3.62369 9.2772 3.72284 9.27921 3.8222 9.2782C3.85928 9.27319 3.89657 9.28021 3.93365 9.2772C4.0328 9.2772 4.13216 9.27921 4.23152 9.2782C4.26881 9.27319 4.3063 9.28041 4.34379 9.277C4.43536 9.26517 4.53595 9.3107 4.6181 9.23688C4.63859 9.20218 4.63204 9.16346 4.63593 9.12635C4.63777 9.02846 4.63593 8.93057 4.63593 8.83287C4.64003 8.79637 4.63224 8.75985 4.63695 8.72355C4.63798 8.62626 4.63695 8.52917 4.63593 8.43188C4.64003 8.39557 4.63224 8.35906 4.63695 8.32275C4.63798 8.22566 4.63695 8.12837 4.63593 8.03128C4.64003 7.99477 4.63224 7.95846 4.63695 7.92215C4.63798 7.82486 4.63695 7.72777 4.63593 7.63048C4.64003 7.59417 4.63224 7.55767 4.63695 7.52136C4.63798 7.42427 4.63695 7.32698 4.63593 7.22989C4.64003 7.19338 4.63224 7.15707 4.63695 7.12056C4.63798 7.02347 4.63695 6.92638 4.63593 6.82909C4.64003 6.79278 4.63224 6.75627 4.63695 6.71996C4.63798 6.62267 4.63695 6.52558 4.63593 6.42849C4.64003 6.39198 4.63224 6.35567 4.63695 6.31916C4.63798 6.22207 4.63695 6.12498 4.63593 6.02769C4.64003 5.99139 4.63224 5.95488 4.63695 5.91857C4.63798 5.82128 4.63695 5.72419 4.63593 5.6271C4.64003 5.59059 4.63224 5.55428 4.63695 5.51777C4.63798 5.42068 4.63695 5.32339 4.63593 5.2263C4.64003 5.18999 4.63224 5.15348 4.63695 5.11718C4.63798 5.01989 4.63695 4.9228 4.63593 4.82571C4.64003 4.7892 4.63224 4.75289 4.63695 4.71638C4.63798 4.61929 4.63695 4.522 4.63593 4.42491C4.64003 4.3886 4.63224 4.35209 4.63695 4.31578C4.63798 4.21849 4.63695 4.1214 4.63593 4.02431C4.64003 3.9878 4.63224 3.95149 4.63695 3.91498C4.63798 3.81809 4.63695 3.721 4.63593 3.62411C4.63982 3.58841 4.63245 3.5525 4.63593 3.5168C4.63593 3.42572 4.63695 3.33445 4.63449 3.24338C4.63449 3.20105 4.65703 3.1832 4.69841 3.18561C4.82707 3.19022 4.95552 3.18701 5.08417 3.18781C5.22758 3.18781 5.22758 3.18982 5.22901 3.33425C5.22901 3.46664 5.22778 3.59924 5.23065 3.73164C5.22615 3.76794 5.23434 3.80425 5.23065 3.84056C5.22922 3.93805 5.23065 4.03554 5.23065 4.13304C5.22656 4.16954 5.23454 4.20605 5.22963 4.24236C5.2286 4.33965 5.22963 4.43674 5.23065 4.53403C5.22676 4.57034 5.23454 4.60685 5.22963 4.64316C5.2286 4.74025 5.22963 4.83754 5.23065 4.93463C5.22676 4.97094 5.23454 5.00745 5.22963 5.04375C5.2286 5.14104 5.22963 5.23814 5.23065 5.33543C5.22676 5.37173 5.23454 5.40824 5.22963 5.44455C5.2286 5.54164 5.22963 5.63893 5.23065 5.73602C5.22676 5.77253 5.23454 5.80884 5.22963 5.84515C5.2286 5.94244 5.22963 6.03953 5.23065 6.13682C5.22676 6.17313 5.23454 6.20964 5.22963 6.24595C5.2286 6.34304 5.22963 6.44033 5.23065 6.53742C5.22676 6.57393 5.23454 6.61024 5.22963 6.64654C5.2286 6.74383 5.22963 6.84092 5.23065 6.93821C5.22676 6.97452 5.23454 7.01103 5.22963 7.04734C5.2286 7.14443 5.22963 7.24172 5.23065 7.33881C5.22676 7.37532 5.23454 7.41163 5.22963 7.44814C5.2286 7.54523 5.22963 7.64232 5.23065 7.73961C5.22676 7.77592 5.23454 7.81243 5.22963 7.84873C5.2286 7.94582 5.22963 8.04311 5.23065 8.1402C5.22676 8.17671 5.23454 8.21302 5.22963 8.24953C5.2286 8.34662 5.22963 8.44391 5.23065 8.541C5.22676 8.57731 5.23454 8.61382 5.22963 8.65033C5.2286 8.74782 5.22963 8.84531 5.22963 8.9428C5.22553 8.97991 5.23393 9.01702 5.22819 9.05413C5.22819 9.2762 5.23127 9.27981 5.45539 9.27881C5.49309 9.27279 5.53119 9.28061 5.56909 9.2774C5.66866 9.2774 5.76822 9.27941 5.86778 9.2774C5.90487 9.27239 5.94215 9.27961 5.97944 9.2764C6.07859 9.2764 6.17795 9.2784 6.27711 9.2774C6.31419 9.27239 6.35147 9.27961 6.38855 9.2764C6.48791 9.2764 6.58727 9.2784 6.68643 9.2774C6.72351 9.27239 6.76079 9.27961 6.79787 9.2764C6.89723 9.2764 6.99639 9.2784 7.09575 9.2774C7.13283 9.27239 7.17011 9.27961 7.20719 9.2764C7.30635 9.2764 7.40571 9.2784 7.50486 9.2774C7.54215 9.27239 7.57923 9.27941 7.61652 9.2764C7.71567 9.2764 7.81503 9.27841 7.91439 9.2764C7.95188 9.27138 7.98958 9.27901 8.02727 9.27539C8.0539 9.27359 8.08054 9.27539 8.10737 9.27539C8.19301 9.2772 8.24013 9.24109 8.23562 9.15263C8.24054 9.11592 8.23214 9.07881 8.23705 9.0419C8.23705 8.94461 8.23705 8.84732 8.23705 8.75003C8.24115 8.71372 8.23337 8.67721 8.23705 8.6409C8.23705 8.54381 8.23705 8.44652 8.23705 8.34943C8.24115 8.31292 8.23337 8.27661 8.23705 8.2403C8.23705 8.14301 8.23705 8.04592 8.23705 7.94863C8.24115 7.91232 8.23337 7.87582 8.23705 7.83951C8.23705 7.74242 8.23705 7.64513 8.23705 7.54804C8.24115 7.51153 8.23337 7.47522 8.23705 7.43871C8.23705 7.34162 8.23705 7.24453 8.23705 7.14724C8.24115 7.11093 8.23337 7.07442 8.23705 7.03811C8.23705 6.94082 8.23705 6.84373 8.23705 6.74664C8.24115 6.71013 8.23337 6.67382 8.23705 6.63731C8.23705 6.54023 8.23705 6.44314 8.23705 6.34585C8.24115 6.30954 8.23337 6.27303 8.23705 6.23672C8.23705 6.13943 8.23705 6.04234 8.23705 5.94525C8.24115 5.90874 8.23337 5.87243 8.23705 5.83592C8.23705 5.73883 8.23705 5.64154 8.23705 5.54445C8.24115 5.50814 8.23337 5.47163 8.23705 5.43532C8.23705 5.33803 8.23705 5.24094 8.23705 5.14385C8.24115 5.10734 8.23337 5.07104 8.23705 5.03453C8.23705 4.93744 8.23705 4.84015 8.23705 4.74306C8.24115 4.70675 8.23337 4.67024 8.23705 4.63393C8.23705 4.53664 8.23705 4.43955 8.23705 4.34226C8.24115 4.30595 8.23337 4.26964 8.23705 4.23313C8.23705 4.13604 8.23705 4.03875 8.23705 3.94166C8.24115 3.90535 8.23337 3.86885 8.23705 3.83254C8.23705 3.73525 8.23705 3.63816 8.23705 3.54087C8.24115 3.50456 8.23337 3.46825 8.23705 3.43174C8.23705 3.33465 8.23705 3.23736 8.23705 3.14027C8.24115 3.10396 8.23337 3.06745 8.23705 3.03115C8.23705 2.93386 8.23705 2.83676 8.23705 2.73967C8.24115 2.70337 8.23337 2.66686 8.23705 2.63055C8.23787 2.53413 8.23746 2.43757 8.23582 2.34088C8.23972 2.30537 8.23275 2.26987 8.23582 2.23437C8.23924 2.13038 8.22974 2.02638 8.20755 1.92464C8.19485 1.87048 8.17969 1.81692 8.14097 1.77339C8.01518 1.47249 7.82261 1.22635 7.52494 1.06949C7.45979 1.03518 7.39157 1.0059 7.32479 0.974402L7.18138 0.935286L6.85687 0.908203Z" fill="#989898"/>
<path d="M0.345912 12.1508V12.251L0.347755 12.5519L0.365784 12.6723C0.397957 12.8164 0.448116 12.9561 0.515131 13.0881C0.640437 13.2836 0.809039 13.4489 1.00845 13.5718C1.12747 13.6847 1.28297 13.7094 1.43559 13.7415C1.48128 13.7415 1.52368 13.7632 1.56978 13.7616C1.66647 13.7656 1.76297 13.7642 1.85946 13.7644C1.89613 13.7598 1.93321 13.7666 1.96988 13.7644C2.06904 13.7644 2.16819 13.7664 2.26734 13.7654C2.30443 13.7604 2.34171 13.7676 2.37879 13.7644C2.47795 13.7644 2.57731 13.7664 2.67646 13.7654C2.71354 13.7604 2.75083 13.7676 2.78791 13.7644C2.88727 13.7644 2.98642 13.7664 3.08578 13.7654C3.12286 13.7604 3.16015 13.7676 3.19723 13.7644C3.29659 13.7644 3.39574 13.7664 3.4951 13.7654C3.53218 13.7604 3.56947 13.7676 3.60655 13.7644C3.70571 13.7644 3.80507 13.7664 3.90422 13.7654C3.94151 13.7604 3.97859 13.7676 4.01587 13.7644C4.11503 13.7644 4.21439 13.7664 4.31354 13.7654C4.35062 13.7604 4.38791 13.7676 4.42499 13.7644C4.52435 13.7644 4.6235 13.7664 4.72286 13.7654C4.75994 13.7604 4.79723 13.7676 4.83431 13.7644C4.93367 13.7644 5.03282 13.7664 5.13218 13.7654C5.16926 13.7604 5.20655 13.7676 5.24363 13.7644C5.34278 13.7644 5.44214 13.7664 5.5413 13.7654C5.57838 13.7604 5.61567 13.7676 5.65295 13.7644C5.75211 13.7644 5.85147 13.7664 5.95062 13.7654C5.9877 13.7604 6.02499 13.7676 6.06207 13.7644C6.16143 13.7644 6.26058 13.7664 6.35994 13.7654C6.39702 13.7604 6.43431 13.7676 6.47139 13.7644C6.57075 13.7644 6.6699 13.7664 6.76926 13.7654C6.80634 13.7604 6.84363 13.7676 6.88071 13.7644C6.97986 13.7644 7.07922 13.7664 7.17838 13.7654C7.21546 13.7604 7.25275 13.7676 7.28983 13.7644C7.38919 13.7644 7.48834 13.7664 7.5877 13.7654C7.62478 13.7604 7.66207 13.7676 7.69915 13.7644C7.79789 13.7644 7.89684 13.7664 7.99579 13.7654C8.03226 13.7606 8.06893 13.7668 8.1054 13.7654C8.18734 13.7618 8.27195 13.7718 8.35472 13.7582C8.3974 13.7478 8.44071 13.7402 8.4844 13.7353C8.54964 13.7207 8.61345 13.7005 8.67513 13.6751C8.71917 13.655 8.76527 13.6402 8.80808 13.6177C8.86217 13.5911 8.91052 13.5557 8.96501 13.5289C8.99472 13.5088 9.02114 13.4833 9.05249 13.4651C9.10575 13.4227 9.15082 13.3722 9.2004 13.3263C9.22464 13.2996 9.24721 13.2715 9.26801 13.2422C9.30884 13.1934 9.34434 13.1404 9.37392 13.0843C9.38621 13.0593 9.39953 13.0348 9.41326 13.0105C9.44874 12.9406 9.47728 12.8675 9.49848 12.7923C9.50606 12.7616 9.51507 12.7321 9.52143 12.7006C9.54013 12.6122 9.54858 12.522 9.54662 12.4318C9.54867 12.3967 9.54314 12.3616 9.54662 12.3265C9.54662 12.2299 9.54662 12.1335 9.54662 12.0372C9.55052 12.0009 9.54294 11.9646 9.54662 11.9283C9.54765 11.8312 9.54662 11.7341 9.54662 11.637C9.55072 11.6007 9.54294 11.5644 9.54662 11.5281C9.54662 11.432 9.54662 11.3357 9.54539 11.2396C9.54908 11.2047 9.54294 11.17 9.54539 11.1353C9.5418 11.0299 9.52585 10.9252 9.49787 10.8234C9.47514 10.7499 9.44658 10.6783 9.41244 10.6091C9.28061 10.338 9.05763 10.1194 8.78084 9.9901C8.71056 9.9566 8.63767 9.92863 8.56286 9.90645C8.45917 9.87905 8.35264 9.86323 8.24532 9.85931C8.20988 9.86151 8.17423 9.8561 8.13879 9.85931C8.04045 9.8579 7.94232 9.8571 7.84419 9.8577C7.80711 9.86252 7.77003 9.85549 7.73295 9.8587C7.6338 9.8587 7.53444 9.8567 7.43528 9.8577C7.3982 9.86272 7.36091 9.85549 7.32383 9.8587C7.22447 9.8587 7.12532 9.8567 7.02596 9.8577C6.98888 9.86272 6.95159 9.85549 6.91451 9.8587C6.81515 9.8587 6.716 9.8567 6.61664 9.8577C6.57956 9.86272 6.54227 9.85549 6.50519 9.8587C6.40604 9.8587 6.30668 9.8567 6.20752 9.8577C6.17044 9.86272 6.13316 9.85549 6.09587 9.8587C5.99672 9.8587 5.89736 9.8567 5.7982 9.8577C5.76112 9.86272 5.72383 9.85549 5.68675 9.8587C5.58739 9.8587 5.48824 9.8567 5.38888 9.8577C5.3518 9.86272 5.31451 9.85549 5.27743 9.8587C5.17828 9.8587 5.07892 9.8567 4.97956 9.8577C4.94248 9.86272 4.90519 9.85549 4.86811 9.8587C4.76896 9.8587 4.6696 9.8567 4.57044 9.8577C4.53336 9.86272 4.49608 9.85549 4.459 9.8587C4.35964 9.8587 4.26048 9.8567 4.16112 9.8577C4.12404 9.86272 4.08676 9.85549 4.04967 9.8587C3.95031 9.8587 3.85116 9.8567 3.7518 9.8577C3.71472 9.86272 3.67743 9.85549 3.64035 9.8587C3.5412 9.8587 3.44184 9.8567 3.34268 9.8577C3.3054 9.86272 3.26832 9.85549 3.23103 9.8587C3.13188 9.8587 3.03252 9.8567 2.93336 9.8577C2.89628 9.86272 2.859 9.85549 2.82192 9.8587C2.72235 9.8587 2.62299 9.8565 2.52363 9.8587C2.48676 9.86392 2.4464 9.8561 2.41567 9.88559H1.70007H1.59764L1.37884 9.91126L1.24978 9.94657L1.04799 10.0296L0.96604 10.0768L0.804811 10.1909C0.788986 10.2167 0.765958 10.2376 0.738434 10.2511L0.613671 10.3893L0.55426 10.4717C0.521072 10.5315 0.487816 10.5913 0.454491 10.6511C0.448954 10.6884 0.434954 10.724 0.413518 10.7554L0.366194 10.9504C0.360457 10.9839 0.354926 11.0174 0.34919 11.0507L0.346322 11.3516V12.154L0.345912 12.1508Z" fill="#989898"/>
</g>
<defs>
<clipPath id="clip0_6763_9291">
<rect width="9.20214" height="19.2571" fill="white" transform="matrix(-1 0 0 1 9.54785 0.908203)"/>
</clipPath>
</defs>
</svg>
