<svg width="10" height="19" viewBox="0 0 10 19" fill="none" xmlns="http://www.w3.org/2000/svg">
<path d="M7.88583 5.48987H6.60775V1.93541H7.22122V0.921875H2.26229V1.93541H2.87576V5.48987H1.59769C1.21686 5.4904 0.85178 5.6406 0.582491 5.90754C0.313201 6.17448 0.161674 6.53637 0.161133 6.91388V16.0093C0.161674 16.3868 0.313201 16.7487 0.582491 17.0157C0.85178 17.2826 1.21686 17.4328 1.59769 17.4333H2.19788V18.1519H3.22034V17.4343H6.27545V18.1519H7.2979V17.4343H7.89706C8.27523 17.4296 8.63629 17.2773 8.90208 17.0106C9.16788 16.7439 9.31703 16.3842 9.31727 16.0093V6.91388C9.31674 6.53725 9.16592 6.17612 8.89773 5.90933C8.62954 5.64253 8.26578 5.49174 7.88583 5.48987ZM3.21318 15.1245H2.19072V7.79971H3.21318V15.1245ZM5.24992 15.1245H4.22746V7.79971H5.24992V15.1245ZM5.58937 5.48987H3.89209V1.93541H5.58937V5.48987ZM7.28667 15.1245H6.2642V7.79971H7.28667V15.1245Z" fill="#989898"/>
</svg>
