<svg width="24" height="31" viewBox="0 0 24 31" fill="none" xmlns="http://www.w3.org/2000/svg">
<path d="M21.5675 0H2.24297C1.32711 0 0.587891 0.714024 0.587891 1.59865V22.615C0.587891 23.3416 0.954232 24.0177 1.56916 24.4348L10.78 30.6588C11.4538 31.1137 12.3566 31.1137 13.0304 30.6588L22.2413 24.4348C22.8562 24.0177 23.2226 23.3416 23.2226 22.615V1.59865C23.2226 0.714024 22.4833 0 21.5675 0ZM18.8526 11.9994L15.706 14.5838L16.6873 18.4698C16.8705 19.2028 16.0527 19.7841 15.392 19.3861L11.9052 17.2693L8.4119 19.3797C7.75117 19.7778 6.93345 19.1965 7.11662 18.4635L8.09789 14.5775L4.95128 11.9931C4.36252 11.5065 4.66998 10.565 5.44846 10.5145L9.55017 10.2238L11.1006 6.51468C11.395 5.81961 12.4089 5.81961 12.7033 6.51468L14.2537 10.2238L18.3554 10.5145C19.1339 10.5713 19.4479 11.5128 18.8526 11.9994Z" fill="#D9D9D9"/>
</svg>
