<svg width="18" height="19" viewBox="0 0 18 19" fill="none" xmlns="http://www.w3.org/2000/svg">
<path d="M4.51451 6.52461C5.07321 6.52461 5.61937 6.3604 6.08392 6.05273C6.54848 5.74506 6.91057 5.30776 7.12443 4.79612C7.33828 4.28447 7.39429 3.72146 7.28536 3.17826C7.17644 2.63507 6.90748 2.13609 6.51249 1.7444C6.1175 1.35272 5.61422 1.08593 5.06628 0.977762C4.51834 0.869594 3.95035 0.924906 3.43412 1.13671C2.91789 1.34851 2.4766 1.70728 2.16606 2.16767C1.85551 2.62806 1.68966 3.16938 1.68945 3.72321C1.69026 4.46576 1.98813 5.17769 2.51773 5.70285C3.04733 6.22801 3.76542 6.52354 4.51451 6.52461Z" fill="#989898"/>
<path d="M13.9364 6.52461C14.4951 6.52461 15.0412 6.3604 15.5058 6.05273C15.9704 5.74506 16.3324 5.30776 16.5463 4.79612C16.7602 4.28447 16.8162 3.72146 16.7072 3.17826C16.5983 2.63507 16.3294 2.13609 15.9344 1.7444C15.5394 1.35272 15.0361 1.08593 14.4882 0.977762C13.9402 0.869594 13.3722 0.924906 12.856 1.13671C12.3398 1.34851 11.8985 1.70728 11.5879 2.16767C11.2774 2.62806 11.1115 3.16938 11.1113 3.72321C11.1121 4.46576 11.41 5.17769 11.9396 5.70285C12.4692 6.22801 13.1873 6.52354 13.9364 6.52461Z" fill="#989898"/>
<path d="M1.69091 14.459H1.92607V18.2871H7.10586V14.459H7.34103C7.52841 14.459 7.70811 14.3852 7.84061 14.2539C7.97311 14.1225 8.04754 13.9444 8.04754 13.7587V9.09034C8.04809 8.29693 7.7754 7.5271 7.27456 6.9082C6.50683 7.56375 5.52721 7.92432 4.51392 7.92432C3.50063 7.92432 2.52101 7.56375 1.75327 6.9082C1.25369 7.52791 0.98244 8.29807 0.984385 9.09134V13.7597C0.984656 13.9452 1.05921 14.1231 1.19168 14.2542C1.32415 14.3854 1.5037 14.459 1.69091 14.459Z" fill="#989898"/>
<path d="M11.1091 14.459H11.3442V18.2871H16.524V14.459H16.7592C16.9466 14.459 17.1262 14.3852 17.2587 14.2539C17.3912 14.1225 17.4657 13.9444 17.4657 13.7587V9.09034C17.4662 8.29693 17.1935 7.5271 16.6927 6.9082C15.925 7.56375 14.9453 7.92432 13.9321 7.92432C12.9188 7.92432 11.9392 7.56375 11.1714 6.9082C10.6706 7.5271 10.3979 8.29693 10.3984 9.09034V13.7587C10.3984 13.851 10.4168 13.9424 10.4526 14.0276C10.4884 14.1129 10.5408 14.1902 10.6068 14.2553C10.6729 14.3204 10.7512 14.3719 10.8374 14.4069C10.9236 14.4418 11.0159 14.4596 11.1091 14.459Z" fill="#989898"/>
</svg>
