<svg width="17" height="15" viewBox="0 0 17 15" fill="none" xmlns="http://www.w3.org/2000/svg">
<path d="M0.286133 7.53481V13.8532C0.286133 13.9792 0.336648 14.1002 0.426578 14.1893C0.516508 14.2784 0.638481 14.3285 0.765661 14.3285H16.2672C16.333 14.3285 16.3981 14.3157 16.4589 14.2907C16.5197 14.2658 16.5749 14.2292 16.6215 14.1831C16.668 14.1369 16.7049 14.0822 16.7301 14.0219C16.7552 13.9617 16.7682 13.8971 16.7682 13.8319V1.24078C16.7682 1.10906 16.7154 0.982743 16.6215 0.889607C16.5275 0.796471 16.4001 0.744141 16.2672 0.744141H7.19286C7.03164 0.744144 6.87203 0.775963 6.72335 0.837737C6.57466 0.89951 6.43988 0.989999 6.32684 1.10394L0.528456 6.94696C0.372934 7.10375 0.285891 7.31491 0.286133 7.53481ZM13.0199 8.28077C13.0199 8.25389 13.0306 8.22812 13.0498 8.20911C13.069 8.1901 13.095 8.17941 13.1221 8.17941H15.5658C15.5929 8.17941 15.6189 8.1901 15.6381 8.20911C15.6573 8.22812 15.668 8.25389 15.668 8.28077V8.8453C15.668 8.87218 15.6573 8.89796 15.6381 8.91697C15.6189 8.93598 15.5929 8.94666 15.5658 8.94666H13.1221C13.095 8.94666 13.069 8.93598 13.0498 8.91697C13.0306 8.89796 13.0199 8.87218 13.0199 8.8453V8.28077ZM2.2012 6.9125L7.07118 1.96848C7.11282 1.92613 7.16258 1.89248 7.21754 1.8695C7.27251 1.84653 7.33156 1.8347 7.39122 1.83471H15.4441C15.5043 1.83471 15.562 1.85841 15.6046 1.9006C15.6472 1.9428 15.6711 2.00004 15.6711 2.05971V7.05642C15.6711 7.11609 15.6472 7.17333 15.6046 7.21553C15.562 7.25772 15.5043 7.28142 15.4441 7.28142H2.35661C2.31313 7.2817 2.27056 7.26913 2.23433 7.24531C2.19809 7.2215 2.16983 7.18753 2.15315 7.14773C2.13647 7.10792 2.13214 7.06409 2.1407 7.02184C2.14926 6.97958 2.17032 6.94081 2.2012 6.91047V6.9125Z" fill="#989898"/>
</svg>
