<svg width="20" height="20" viewBox="0 0 20 20" fill="none" xmlns="http://www.w3.org/2000/svg">
<circle cx="10" cy="10" r="10" fill="#520A76"/>
<g clip-path="url(#clip0)">
<path fill-rule="evenodd" clip-rule="evenodd" d="M2.35284 12.6667H4.98734C4.82009 12.5069 4.70598 12.3031 4.65947 12.081C4.61295 11.8589 4.63613 11.6285 4.72606 11.4191C4.81599 11.2097 4.96862 11.0306 5.16461 10.9046C5.3606 10.7786 5.59112 10.7113 5.82695 10.7113C6.06278 10.7113 6.2933 10.7786 6.48929 10.9046C6.68528 11.0306 6.83791 11.2097 6.92784 11.4191C7.01777 11.6285 7.04095 11.8589 6.99443 12.081C6.94792 12.3031 6.83381 12.5069 6.66656 12.6667H15.5082C15.3409 12.5069 15.2268 12.3031 15.1803 12.081C15.1338 11.8589 15.157 11.6285 15.2469 11.4191C15.3368 11.2097 15.4895 11.0306 15.6855 10.9046C15.8815 10.7786 16.112 10.7113 16.3478 10.7113C16.5836 10.7113 16.8142 10.7786 17.0101 10.9046C17.2061 11.0306 17.3588 11.2097 17.4487 11.4191C17.5386 11.6285 17.5618 11.8589 17.5153 12.081C17.4688 12.3031 17.3547 12.5069 17.1874 12.6667H18.3076V13H2.35284V12.6667ZM16.849 11.856C16.849 11.9826 16.7966 12.104 16.7035 12.1935C16.6103 12.283 16.4839 12.3333 16.3521 12.3333C16.2203 12.3333 16.0939 12.283 16.0007 12.1935C15.9075 12.104 15.8552 11.9826 15.8552 11.856H16.2022C16.2022 11.8942 16.218 11.9308 16.2461 11.9578C16.2742 11.9848 16.3123 12 16.3521 12C16.3919 12 16.43 11.9848 16.4581 11.9578C16.4862 11.9308 16.502 11.8942 16.502 11.856H16.849ZM16.3521 11.0453C16.519 11.0453 16.6822 11.0928 16.8209 11.1819C16.9597 11.271 17.0679 11.3976 17.1317 11.5457C17.1956 11.6939 17.2123 11.8569 17.1798 12.0141C17.1472 12.1714 17.0668 12.3158 16.9488 12.4292C16.8308 12.5426 16.6804 12.6198 16.5167 12.6511C16.353 12.6824 16.1833 12.6663 16.0291 12.605C15.8749 12.5436 15.7431 12.4397 15.6504 12.3064C15.5577 12.173 15.5082 12.0163 15.5082 11.856C15.5082 11.641 15.5971 11.4348 15.7554 11.2827C15.9136 11.1307 16.1283 11.0453 16.3521 11.0453ZM6.32815 11.856C6.32815 11.9826 6.27579 12.104 6.18261 12.1935C6.08942 12.283 5.96302 12.3333 5.83123 12.3333C5.69945 12.3333 5.57305 12.283 5.47986 12.1935C5.38667 12.104 5.33432 11.9826 5.33432 11.856H5.6813C5.6813 11.8942 5.6971 11.9308 5.72522 11.9578C5.75333 11.9848 5.79147 12 5.83123 12C5.871 12 5.90913 11.9848 5.93725 11.9578C5.96537 11.9308 5.98116 11.8942 5.98116 11.856H6.32815ZM5.83123 11.0453C5.99814 11.0453 6.1613 11.0928 6.30008 11.1819C6.43886 11.271 6.54702 11.3976 6.61089 11.5457C6.67477 11.6939 6.69148 11.8569 6.65892 12.0141C6.62635 12.1714 6.54598 12.3158 6.42796 12.4292C6.30994 12.5426 6.15957 12.6198 5.99587 12.6511C5.83217 12.6824 5.66249 12.6663 5.50829 12.605C5.35409 12.5436 5.22229 12.4397 5.12956 12.3064C5.03683 12.173 4.98734 12.0163 4.98734 11.856C4.98734 11.641 5.07625 11.4348 5.23451 11.2827C5.39277 11.1307 5.60742 11.0453 5.83123 11.0453ZM2.69554 12L3.04252 11.6667H2.35284L2.00586 11V10.3374H2.69554L3.04252 10.0041H2.35284V9.33333L2.69554 9H4.43045L4.08347 8.66667L7.20631 8H11.368L12.7559 8.33333L14.4908 9.33333H13.7968L12.7559 8.66667L11.368 8.33333H7.20631L6.51235 9L6.85076 9.33333L9.63519 9.66667V8.66667H9.98217L10.327 9.66667H16.5727L18.6546 10L18.3076 10.3374L19.0016 10.6708V12.0041L18.6546 12.3374H17.7978C17.8781 12.1146 17.9017 11.8765 17.8667 11.6431C17.8318 11.4097 17.7392 11.1877 17.5968 10.9956C17.4544 10.8035 17.2663 10.6469 17.0481 10.5388C16.8299 10.4308 16.5879 10.3744 16.3424 10.3744C16.097 10.3744 15.855 10.4308 15.6368 10.5388C15.4186 10.6469 15.2305 10.8035 15.0881 10.9956C14.9457 11.1877 14.8531 11.4097 14.8182 11.6431C14.7832 11.8765 14.8068 12.1146 14.887 12.3374H7.27914C7.35938 12.1146 7.383 11.8765 7.34803 11.6431C7.31306 11.4097 7.22052 11.1877 7.0781 10.9956C6.93569 10.8035 6.74754 10.6469 6.52934 10.5388C6.31115 10.4308 6.06922 10.3744 5.82374 10.3744C5.57826 10.3744 5.33633 10.4308 5.11813 10.5388C4.89993 10.6469 4.71179 10.8035 4.56937 10.9956C4.42696 11.1877 4.33441 11.4097 4.29944 11.6431C4.26447 11.8765 4.28809 12.1146 4.36834 12.3374H3.04252L2.69554 12ZM3.18603 12H3.94853C3.94853 11.9527 3.94853 11.9053 3.94853 11.856C3.94853 11.3757 4.14711 10.9152 4.50059 10.5756C4.85407 10.236 5.33348 10.0453 5.83338 10.0453C6.33327 10.0453 6.81268 10.236 7.16616 10.5756C7.51964 10.9152 7.71822 11.3757 7.71822 11.856C7.71822 11.9053 7.71822 11.9527 7.71822 12H14.4694C14.4694 11.9527 14.4694 11.9053 14.4694 11.856C14.4694 11.3757 14.668 10.9152 15.0214 10.5756C15.3749 10.236 15.8543 10.0453 16.3542 10.0453C16.8541 10.0453 17.3335 10.236 17.687 10.5756C18.0405 10.9152 18.2391 11.3757 18.2391 11.856C18.2391 11.9053 18.2391 11.9527 18.2391 12H18.5239L18.6674 11.8621V10.8724L17.7357 10.4259L17.9499 10.2202L16.562 9.99794H10.0786L9.98217 9.72016V10.0432L6.69655 9.65021L6.02186 9L6.56375 8.4856L4.77529 8.86831L5.26792 9.33951H2.83905L2.69554 9.47737V9.67284H3.87999L2.83905 10.6667H2.35284V10.9218L2.56703 11.3333H3.88428L3.19031 12H3.18603Z" fill="white"/>
</g>
<defs>
<clipPath id="clip0">
<rect width="17" height="5" fill="white" transform="translate(2 8)"/>
</clipPath>
</defs>
</svg>
